<svg version="1.1" id="Layer_1" xmlns="http://www.w3.org/2000/svg" xmlns:xlink="http://www.w3.org/1999/xlink" x="0px" y="0px"
	 width="100%" viewBox="0 0 976 976" enable-background="new 0 0 976 976" xml:space="preserve">
<path fill="#000000" opacity="1.000000" stroke="none" 
	d="
M545.366699,449.460999 
	C504.355804,470.094604 464.514069,468.796753 426.781403,443.040283 
	C398.740845,423.899719 382.909271,396.527130 379.640106,362.552795 
	C375.835571,323.014404 389.623505,290.292572 419.723206,264.623749 
	C460.543579,229.812469 525.003357,230.985977 564.825806,266.836884 
	C590.143799,289.629883 603.650452,318.082031 603.053040,352.025452 
	C602.299438,394.842499 582.569275,427.335266 545.366699,449.460999 
z"/>
<path fill="#000000" opacity="1.000000" stroke="none" 
	d="
M466.934998,551.116943 
	C431.084839,554.948669 398.460907,566.575439 368.671661,586.046570 
	C365.311707,588.242737 363.397186,588.922424 360.062653,585.350586 
	C352.870941,577.646912 342.974243,577.117798 333.157043,577.618958 
	C320.448395,578.267700 308.013824,580.349731 296.330597,585.746216 
	C295.420959,586.166443 294.460388,586.427734 293.115143,585.808655 
	C292.657288,582.536682 294.221283,579.496704 295.091461,576.424561 
	C301.618073,553.381470 310.164703,531.217285 324.950165,512.031799 
	C341.773956,490.201324 363.998810,478.834686 391.682312,478.802856 
	C456.141876,478.728668 520.601624,478.772003 585.061279,478.783752 
	C586.995605,478.784088 589.023865,478.403412 590.754150,479.496399 
	C591.484253,481.975494 589.854919,483.520447 588.941650,485.164398 
	C576.410461,507.721436 563.725098,530.193237 551.287903,552.801758 
	C549.384827,556.261169 547.379456,556.910706 543.722656,556.005310 
	C518.587708,549.782227 493.095886,548.607117 466.934998,551.116943 
z"/>
<path fill="#000000" opacity="1.000000" stroke="none" 
	d="
M273.839233,730.340942 
	C259.442139,721.454468 253.797577,707.526794 250.848663,692.320618 
	C243.713364,655.526855 262.499146,621.094299 298.448700,604.010559 
	C310.381287,598.340027 322.905151,595.473938 336.058685,595.141602 
	C337.388733,595.107971 338.752960,595.029114 340.047089,595.266724 
	C342.568848,595.729675 345.965057,595.006042 347.050903,598.017761 
	C348.180878,601.151855 345.023956,602.647095 343.161530,604.357422 
	C335.386780,611.496887 335.371033,611.415100 344.042114,617.627380 
	C356.335938,626.435181 361.186646,639.141541 359.848541,653.420410 
	C356.846985,685.451050 341.926239,711.018005 314.532684,728.317871 
	C301.909698,736.289734 288.068176,738.027832 273.839233,730.340942 
z"/>
<path fill="#000000" opacity="1.000000" stroke="none" 
	d="
M709.931885,623.070374 
	C733.195679,646.472351 739.304688,679.910217 725.948853,709.570923 
	C713.881226,736.370728 686.558167,743.388733 662.139282,725.034119 
	C638.515625,707.276978 624.497437,683.258972 622.227600,653.618103 
	C620.920654,636.550720 627.222168,622.210388 643.734436,614.145569 
	C644.630981,613.707642 645.501038,613.214600 646.375000,612.731873 
	C646.513306,612.655457 646.606689,612.497620 646.990356,612.093750 
	C644.320984,608.585266 640.596497,606.120728 637.435791,603.089478 
	C636.017151,601.729004 634.081421,600.417908 634.851257,598.104187 
	C635.606995,595.833252 637.857117,595.737854 639.855835,595.583130 
	C658.595764,594.132080 675.782654,598.917175 691.743958,608.570496 
	C698.329895,612.553650 704.348450,617.256714 709.931885,623.070374 
z"/>
<path fill="#000000" opacity="1.000000" stroke="none" 
	d="
M597.898865,635.099487 
	C576.571716,618.989014 553.182983,608.212219 527.364380,602.755310 
	C521.362366,601.486694 519.758301,602.349915 518.527649,608.217041 
	C517.402588,613.580566 516.552551,619.014587 515.871948,624.453857 
	C515.448059,627.841248 514.178284,629.344360 510.498688,629.292236 
	C497.510834,629.108398 484.517212,629.117065 471.529144,629.295898 
	C467.849426,629.346558 466.643219,627.840759 466.207520,624.430542 
	C465.492126,618.830933 464.503143,613.249512 463.289734,607.735168 
	C462.150635,602.558350 460.289856,601.475037 455.023254,602.620667 
	C427.745636,608.554504 402.983582,619.845520 381.221375,637.474243 
	C380.210449,638.293152 379.363464,639.453918 377.707489,639.194397 
	C375.960022,638.106567 376.095886,636.115295 375.660492,634.407166 
	C373.913757,627.554199 371.383514,620.944946 366.727905,615.630676 
	C363.363281,611.790039 364.597656,609.999084 368.083832,607.507019 
	C390.282501,591.638916 414.405273,579.862244 441.022827,573.696716 
	C503.410980,559.245422 560.871948,570.500610 613.377197,607.243042 
	C617.194702,609.914490 618.151489,611.865845 614.989685,615.843506 
	C610.824219,621.083740 608.217041,627.269226 606.539307,633.798523 
	C606.056213,635.678589 605.394531,637.512756 604.822083,639.344482 
	C601.526917,639.065247 600.259949,636.547058 597.898865,635.099487 
z"/>
<path fill="#000000" opacity="1.000000" stroke="none" 
	d="
M496.000000,743.087585 
	C469.793030,743.087830 444.086029,743.087830 418.010193,743.087830 
	C418.476807,738.876404 421.008575,737.187317 422.671112,735.101379 
	C440.458710,712.784485 450.994629,687.529602 453.871368,659.106628 
	C454.071960,657.124451 454.502228,655.164490 454.677155,653.181030 
	C455.101166,648.373108 457.869415,645.829773 462.489166,645.800781 
	C481.466583,645.681702 500.445740,645.670532 519.422913,645.803223 
	C523.951660,645.834839 526.889832,648.229980 527.326172,653.093933 
	C530.232178,685.488892 541.293945,714.532532 562.780457,739.291809 
	C563.298889,739.889221 563.594177,740.680298 564.896606,742.965515 
	C552.710632,743.002625 541.586060,743.047729 530.461426,743.067261 
	C519.140930,743.087097 507.820465,743.081726 496.000000,743.087585 
z"/>
<path fill="#000000" opacity="1.000000" stroke="none" 
	d="
M607.694763,582.356812 
	C597.544006,576.176392 587.317139,570.926086 576.611511,566.695251 
	C572.979675,565.259949 572.555603,563.738403 574.431335,560.419556 
	C588.037415,536.345581 601.568726,512.228455 614.930603,488.018341 
	C617.054138,484.170837 619.082520,483.238800 623.218994,485.073975 
	C639.780457,492.421448 652.256470,504.353424 662.148010,519.191406 
	C675.160522,538.710938 682.779053,560.524841 688.752991,582.999573 
	C688.951782,583.747559 688.778198,584.594482 688.778198,585.426880 
	C686.545715,586.733826 684.858398,585.178467 683.101685,584.547119 
	C668.039001,579.133484 652.681030,576.001526 636.580994,578.209900 
	C630.252502,579.077942 624.651184,581.358398 620.688477,586.594482 
	C619.109497,588.680786 617.622437,588.700378 615.619019,587.337891 
	C613.141235,585.652771 610.553101,584.130005 607.694763,582.356812 
z"/>
</svg>