<svg version="1.1" id="Layer_1" xmlns="http://www.w3.org/2000/svg" xmlns:xlink="http://www.w3.org/1999/xlink" x="0px" y="0px"
	 width="100%" viewBox="0 0 980 980" enable-background="new 0 0 980 980" xml:space="preserve">
<path fill="#000000" opacity="1.000000" stroke="none" 
	d="
M544.000000,981.000000 
	C362.666656,981.000000 181.833328,981.000000 1.000000,981.000000 
	C1.000000,654.333313 1.000000,327.666656 1.000000,1.000000 
	C327.666656,1.000000 654.333313,1.000000 981.000000,1.000000 
	C981.000000,327.666656 981.000000,654.333313 981.000000,981.000000 
	C835.500000,981.000000 690.000000,981.000000 544.000000,981.000000 
M520.243469,646.319275 
	C500.936737,646.256653 481.629974,646.184937 462.323212,646.166138 
	C461.595978,646.165405 460.868225,646.677551 459.479401,647.219421 
	C457.982819,650.343140 455.528442,653.353455 455.143036,656.608765 
	C452.369232,680.037476 446.209595,702.250183 432.878326,722.026489 
	C428.429779,728.625732 423.628906,734.987427 418.299225,741.966736 
	C419.687744,742.364319 421.075745,743.107361 422.464783,743.109314 
	C468.186188,743.174255 513.907654,743.168945 559.629150,743.167603 
	C560.790649,743.167603 561.992859,743.263428 563.098389,742.994812 
	C563.755920,742.835083 564.261597,742.049683 564.835510,741.545532 
	C564.125000,741.007812 563.414429,740.470093 562.237610,739.502808 
	C549.709351,724.975952 539.919678,708.815308 534.707947,690.301758 
	C531.748901,679.790161 530.054016,668.920227 527.854919,658.198303 
	C526.897766,653.531677 527.037964,648.248108 520.243469,646.319275 
M467.164551,628.621521 
	C482.289154,628.768616 497.413879,628.963745 512.538086,628.931458 
	C513.357544,628.929749 514.172852,627.024109 515.313538,625.283569 
	C516.468079,619.239014 517.578186,613.185547 518.792786,607.153076 
	C519.604492,603.121887 522.243774,601.478455 526.143188,602.448303 
	C534.219238,604.456970 542.391235,606.240173 550.255981,608.906067 
	C568.210205,614.991943 584.581421,624.093750 599.381958,636.010071 
	C603.858582,639.614319 604.891663,638.794006 606.807617,633.364624 
	C608.936340,627.332520 611.582520,621.391357 614.789734,615.867126 
	C616.623108,612.709167 616.805603,610.860229 613.829529,608.832336 
	C612.040833,607.613525 610.349854,606.250977 608.559570,605.034668 
	C581.976929,586.975281 552.940308,575.259705 521.043335,570.567566 
	C502.953583,567.906494 484.836731,568.355957 466.776550,569.672241 
	C443.406921,571.375427 421.330566,578.515320 400.485138,588.956970 
	C389.664062,594.377319 379.562653,601.250549 369.226074,607.613586 
	C365.473785,609.923340 364.830933,612.613464 367.737244,616.695007 
	C370.775238,620.961609 373.026306,625.915283 374.924347,630.837463 
	C377.895264,638.542114 378.546417,638.654480 385.616638,633.982666 
	C394.738861,627.954956 403.972046,622.000061 413.620117,616.886719 
	C426.612976,610.000671 440.535217,605.348938 455.013916,602.563782 
	C460.314270,601.544128 462.702087,602.842285 463.808075,608.050720 
	C465.186157,614.540405 465.917938,621.167419 467.164551,628.621521 
M590.578125,479.890808 
	C589.063416,479.591644 587.548950,479.032013 586.033997,479.030792 
	C519.982056,478.976898 453.930023,478.966187 387.878052,479.006439 
	C386.547821,479.007233 385.217957,479.672638 383.024811,480.006470 
	C381.036865,480.158630 379.025970,480.168274 377.064514,480.484711 
	C354.973694,484.048309 338.091278,495.963837 324.738708,513.395630 
	C309.971039,532.674744 302.426392,555.282166 295.296539,578.049011 
	C294.642456,580.137634 294.747040,582.463867 294.460266,585.029358 
	C295.989655,584.939209 296.891968,585.121216 297.569153,584.811279 
	C309.479309,579.361084 322.207031,577.807434 335.050720,577.517090 
	C344.398224,577.305664 353.802643,578.028809 360.959351,585.468628 
	C363.550385,588.162109 366.137451,587.688660 368.980896,585.745605 
	C382.231537,576.690613 396.532227,569.684326 411.538055,564.045898 
	C432.575714,556.141052 454.300232,551.151306 476.722748,550.130615 
	C498.893494,549.121277 521.027588,550.086853 542.694214,555.683716 
	C547.030518,556.803833 549.554443,555.667786 551.818726,551.465332 
	C561.916687,532.723694 572.489868,514.238708 582.742188,495.579102 
	C585.438049,490.672546 587.599976,485.472656 590.578125,479.890808 
M568.992249,431.489044 
	C574.021362,425.294769 579.393677,419.344879 584.012390,412.858459 
	C595.811951,396.287537 602.085693,377.601105 602.906555,357.352600 
	C604.103577,327.828247 595.487671,301.408356 575.791626,279.095184 
	C546.257568,245.636856 508.957336,234.154465 465.790955,242.660156 
	C440.996552,247.545761 420.656433,260.999451 404.683563,280.796143 
	C384.908112,305.305756 377.169342,333.498657 380.379425,364.445099 
	C382.656860,386.400024 390.924103,406.237671 405.392853,423.338287 
	C418.628662,438.981720 435.085938,449.914368 454.053223,456.980469 
	C472.047424,463.684113 490.682434,464.720886 509.643372,461.477081 
	C532.298889,457.601196 551.974548,447.983063 568.992249,431.489044 
M301.728149,603.147644 
	C299.935364,604.032166 298.109863,604.856567 296.354797,605.810486 
	C275.983337,616.882751 260.763153,632.479736 253.450455,654.941650 
	C247.206848,674.119629 249.436798,692.908081 257.267548,710.990662 
	C262.637604,723.391113 272.146057,732.422791 285.839355,734.275635 
	C305.733826,736.967590 320.740021,726.850830 333.303284,712.753479 
	C344.402954,700.298462 351.865967,685.766357 356.980194,669.828552 
	C363.008484,651.042175 360.478333,625.865051 338.251434,615.029602 
	C337.008514,614.423645 335.970825,613.396545 334.172211,612.077454 
	C337.703003,608.993225 340.785919,606.520813 343.579834,603.756409 
	C344.778473,602.570374 346.259064,600.591064 345.989563,599.314697 
	C345.739380,598.130005 343.430054,597.119995 341.841705,596.552979 
	C340.321930,596.010315 338.565094,596.014893 336.909149,595.988647 
	C324.926971,595.798279 313.380371,597.854614 301.728149,603.147644 
M727.470337,705.086365 
	C731.600464,694.036133 733.682983,682.655457 732.484131,670.856079 
	C730.415039,650.492249 721.011597,633.940552 705.928589,620.371582 
	C687.820312,604.081116 666.710449,595.649353 642.271484,596.093079 
	C640.406128,596.127014 638.568237,597.675171 636.717590,598.519531 
	C637.737915,600.616760 638.405151,603.011108 639.861572,604.741211 
	C642.021240,607.306702 644.740112,609.401489 647.092651,611.577942 
	C641.798035,615.831177 636.534973,618.982788 632.675354,623.369202 
	C622.634033,634.781250 621.070435,648.670288 624.066162,662.876953 
	C630.780518,694.718323 646.469299,720.174561 678.046814,732.681641 
	C691.328735,737.942200 704.313904,735.607483 714.275208,724.899231 
	C719.484863,719.298889 722.976501,712.100403 727.470337,705.086365 
M685.775879,573.719360 
	C679.767151,558.941650 674.677673,543.700745 667.522766,529.500610 
	C658.056702,510.713654 644.308411,495.489044 624.499512,486.639038 
	C620.208374,484.721863 617.498962,485.121460 615.094727,489.466095 
	C602.035828,513.063843 588.822754,536.576355 575.603271,560.084778 
	C573.663269,563.534668 574.500671,565.636719 578.066711,567.099487 
	C582.679260,568.991577 587.372253,570.771423 591.761963,573.104919 
	C600.693909,577.852905 609.445679,582.939697 618.507629,588.019104 
	C623.097351,583.419800 627.940857,578.910889 635.105835,578.317139 
	C651.016174,576.998535 666.639282,577.776794 681.650085,583.963318 
	C683.392395,584.681335 685.460693,584.608398 687.377747,584.902222 
	C687.372925,583.033447 687.541809,581.142883 687.311523,579.302307 
	C687.107117,577.668152 686.459656,576.089417 685.775879,573.719360 
z"/>
<path fill="#030303" opacity="1.000000" stroke="none" 
	d="
M568.751953,431.741547 
	C551.974548,447.983063 532.298889,457.601196 509.643372,461.477081 
	C490.682434,464.720886 472.047424,463.684113 454.053223,456.980469 
	C435.085938,449.914368 418.628662,438.981720 405.392853,423.338287 
	C390.924103,406.237671 382.656860,386.400024 380.379425,364.445099 
	C377.169342,333.498657 384.908112,305.305756 404.683563,280.796143 
	C420.656433,260.999451 440.996552,247.545761 465.790955,242.660156 
	C508.957336,234.154465 546.257568,245.636856 575.791626,279.095184 
	C595.487671,301.408356 604.103577,327.828247 602.906555,357.352600 
	C602.085693,377.601105 595.811951,396.287537 584.012390,412.858459 
	C579.393677,419.344879 574.021362,425.294769 568.751953,431.741547 
z"/>
<path fill="#030303" opacity="1.000000" stroke="none" 
	d="
M590.007019,480.407440 
	C587.599976,485.472656 585.438049,490.672546 582.742188,495.579102 
	C572.489868,514.238708 561.916687,532.723694 551.818726,551.465332 
	C549.554443,555.667786 547.030518,556.803833 542.694214,555.683716 
	C521.027588,550.086853 498.893494,549.121277 476.722748,550.130615 
	C454.300232,551.151306 432.575714,556.141052 411.538055,564.045898 
	C396.532227,569.684326 382.231537,576.690613 368.980896,585.745605 
	C366.137451,587.688660 363.550385,588.162109 360.959351,585.468628 
	C353.802643,578.028809 344.398224,577.305664 335.050720,577.517090 
	C322.207031,577.807434 309.479309,579.361084 297.569153,584.811279 
	C296.891968,585.121216 295.989655,584.939209 294.460266,585.029358 
	C294.747040,582.463867 294.642456,580.137634 295.296539,578.049011 
	C302.426392,555.282166 309.971039,532.674744 324.738708,513.395630 
	C338.091278,495.963837 354.973694,484.048309 377.064514,480.484711 
	C379.025970,480.168274 381.036865,480.158630 383.931152,480.052917 
	C451.913513,480.066681 518.989502,480.031647 586.065552,480.018280 
	C587.379395,480.018036 588.693176,480.272034 590.007019,480.407440 
z"/>
<path fill="#030303" opacity="1.000000" stroke="none" 
	d="
M302.073364,602.989685 
	C313.380371,597.854614 324.926971,595.798279 336.909149,595.988647 
	C338.565094,596.014893 340.321930,596.010315 341.841705,596.552979 
	C343.430054,597.119995 345.739380,598.130005 345.989563,599.314697 
	C346.259064,600.591064 344.778473,602.570374 343.579834,603.756409 
	C340.785919,606.520813 337.703003,608.993225 334.172211,612.077454 
	C335.970825,613.396545 337.008514,614.423645 338.251434,615.029602 
	C360.478333,625.865051 363.008484,651.042175 356.980194,669.828552 
	C351.865967,685.766357 344.402954,700.298462 333.303284,712.753479 
	C320.740021,726.850830 305.733826,736.967590 285.839355,734.275635 
	C272.146057,732.422791 262.637604,723.391113 257.267548,710.990662 
	C249.436798,692.908081 247.206848,674.119629 253.450455,654.941650 
	C260.763153,632.479736 275.983337,616.882751 296.354797,605.810486 
	C298.109863,604.856567 299.935364,604.032166 302.073364,602.989685 
z"/>
<path fill="#030303" opacity="1.000000" stroke="none" 
	d="
M727.357178,705.355042 
	C722.976501,712.100403 719.484863,719.298889 714.275208,724.899231 
	C704.313904,735.607483 691.328735,737.942200 678.046814,732.681641 
	C646.469299,720.174561 630.780518,694.718323 624.066162,662.876953 
	C621.070435,648.670288 622.634033,634.781250 632.675354,623.369202 
	C636.534973,618.982788 641.798035,615.831177 647.092651,611.577942 
	C644.740112,609.401489 642.021240,607.306702 639.861572,604.741211 
	C638.405151,603.011108 637.737915,600.616760 636.717590,598.519531 
	C638.568237,597.675171 640.406128,596.127014 642.271484,596.093079 
	C666.710449,595.649353 687.820312,604.081116 705.928589,620.371582 
	C721.011597,633.940552 730.415039,650.492249 732.484131,670.856079 
	C733.682983,682.655457 731.600464,694.036133 727.357178,705.355042 
z"/>
<path fill="#030303" opacity="1.000000" stroke="none" 
	d="
M466.928802,627.735107 
	C465.917938,621.167419 465.186157,614.540405 463.808075,608.050720 
	C462.702087,602.842285 460.314270,601.544128 455.013916,602.563782 
	C440.535217,605.348938 426.612976,610.000671 413.620117,616.886719 
	C403.972046,622.000061 394.738861,627.954956 385.616638,633.982666 
	C378.546417,638.654480 377.895264,638.542114 374.924347,630.837463 
	C373.026306,625.915283 370.775238,620.961609 367.737244,616.695007 
	C364.830933,612.613464 365.473785,609.923340 369.226074,607.613586 
	C379.562653,601.250549 389.664062,594.377319 400.485138,588.956970 
	C421.330566,578.515320 443.406921,571.375427 466.776550,569.672241 
	C484.836731,568.355957 502.953583,567.906494 521.043335,570.567566 
	C552.940308,575.259705 581.976929,586.975281 608.559570,605.034668 
	C610.349854,606.250977 612.040833,607.613525 613.829529,608.832336 
	C616.805603,610.860229 616.623108,612.709167 614.789734,615.867126 
	C611.582520,621.391357 608.936340,627.332520 606.807617,633.364624 
	C604.891663,638.794006 603.858582,639.614319 599.381958,636.010071 
	C584.581421,624.093750 568.210205,614.991943 550.255981,608.906067 
	C542.391235,606.240173 534.219238,604.456970 526.143188,602.448303 
	C522.243774,601.478455 519.604492,603.121887 518.792786,607.153076 
	C517.578186,613.185547 516.468079,619.239014 514.927612,625.979614 
	C513.389404,627.091125 512.237488,627.865906 511.084564,627.867493 
	C496.366058,627.887817 481.647400,627.797363 466.928802,627.735107 
z"/>
<path fill="#030303" opacity="1.000000" stroke="none" 
	d="
M418.989075,741.457703 
	C423.628906,734.987427 428.429779,728.625732 432.878326,722.026489 
	C446.209595,702.250183 452.369232,680.037476 455.143036,656.608765 
	C455.528442,653.353455 457.982819,650.343140 460.269470,647.068115 
	C480.970825,646.918640 500.882111,646.920410 520.793396,646.922180 
	C527.037964,648.248108 526.897766,653.531677 527.854919,658.198303 
	C530.054016,668.920227 531.748901,679.790161 534.707947,690.301758 
	C539.919678,708.815308 549.709351,724.975952 562.413147,740.130981 
	C561.006592,741.111389 559.424866,741.769531 557.842346,741.771362 
	C513.875671,741.820862 469.908966,741.808899 425.942230,741.783325 
	C423.624451,741.781921 421.306793,741.571045 418.989075,741.457703 
z"/>
<path fill="#030303" opacity="1.000000" stroke="none" 
	d="
M685.891846,574.102783 
	C686.459656,576.089417 687.107117,577.668152 687.311523,579.302307 
	C687.541809,581.142883 687.372925,583.033447 687.377808,584.902222 
	C685.460693,584.608398 683.392395,584.681335 681.650085,583.963318 
	C666.639282,577.776794 651.016174,576.998535 635.105835,578.317139 
	C627.940857,578.910889 623.097351,583.419800 618.507629,588.019104 
	C609.445679,582.939697 600.693909,577.852905 591.761963,573.104919 
	C587.372253,570.771423 582.679260,568.991577 578.066711,567.099487 
	C574.500671,565.636719 573.663269,563.534668 575.603271,560.084778 
	C588.822754,536.576355 602.035828,513.063843 615.094727,489.466095 
	C617.498962,485.121460 620.208374,484.721863 624.499512,486.639038 
	C644.308411,495.489044 658.056702,510.713654 667.522766,529.500610 
	C674.677673,543.700745 679.767151,558.941650 685.891846,574.102783 
z"/>
<path fill="#7A7A7A" opacity="1.000000" stroke="none" 
	d="
M590.292603,480.149109 
	C588.693176,480.272034 587.379395,480.018036 586.065552,480.018280 
	C518.989502,480.031647 451.913513,480.066681 384.362732,480.063660 
	C385.217957,479.672638 386.547821,479.007233 387.878052,479.006439 
	C453.930023,478.966187 519.982056,478.976898 586.033997,479.030792 
	C587.548950,479.032013 589.063416,479.591644 590.292603,480.149109 
z"/>
<path fill="#7A7A7A" opacity="1.000000" stroke="none" 
	d="
M418.644165,741.712219 
	C421.306793,741.571045 423.624451,741.781921 425.942230,741.783325 
	C469.908966,741.808899 513.875671,741.820862 557.842346,741.771362 
	C559.424866,741.769531 561.006592,741.111389 562.646301,740.345764 
	C563.414429,740.470093 564.125000,741.007812 564.835510,741.545532 
	C564.261597,742.049683 563.755920,742.835083 563.098389,742.994812 
	C561.992859,743.263428 560.790649,743.167603 559.629150,743.167603 
	C513.907654,743.168945 468.186188,743.174255 422.464783,743.109314 
	C421.075745,743.107361 419.687744,742.364319 418.644165,741.712219 
z"/>
<path fill="#7A7A7A" opacity="1.000000" stroke="none" 
	d="
M520.518433,646.620728 
	C500.882111,646.920410 480.970825,646.918640 460.600128,646.933716 
	C460.868225,646.677551 461.595978,646.165405 462.323212,646.166138 
	C481.629974,646.184937 500.936737,646.256653 520.518433,646.620728 
z"/>
<path fill="#7A7A7A" opacity="1.000000" stroke="none" 
	d="
M467.046692,628.178284 
	C481.647400,627.797363 496.366058,627.887817 511.084564,627.867493 
	C512.237488,627.865906 513.389404,627.091125 514.765869,626.340210 
	C514.172852,627.024109 513.357544,628.929749 512.538086,628.931458 
	C497.413879,628.963745 482.289154,628.768616 467.046692,628.178284 
z"/>
</svg>